<svg xmlns="http://www.w3.org/2000/svg" viewBox="0 0 988 448">
    <path d="M95.5 425.8c-8.9 0-17.2-.6-24.5-1.9-9.6-1.7-18.1-5.2-25.1-10.4-7.6-5.7-13.3-13.3-16.9-22.7-3.1-8.1-4.7-17.7-4.7-29.4V109c0-14 3.3-25.9 9.9-35.6 5.5-8.2 13-15.6 22.2-22.1.2-.2.5-.3.7-.5 12.8-8.3 28.6-14.9 47-19.7 17.9-4.7 38-7 59.8-7 23.1 0 45 3.1 65 9.1 21 6.3 39.4 16.2 54.7 29.5 4.5 3.9 8.8 8.1 12.7 12.6 3.8-5.3 8.4-10.3 13.8-14.7 7.1-5.8 15.8-11 25.7-15.4 9-4 18.9-7.7 29.3-10.7 10.4-3.1 21.3-5.5 32.4-7.2 11.2-1.7 22.6-2.6 33.9-2.6 21.2 0 38.8 4.5 52.2 13.4 4.1 2.7 8.5 6.4 12.4 11.3 10.7-7 22.3-12.6 34.7-16.6 17.9-5.8 36.5-8.7 55.2-8.7 21.1 0 40.8 3.3 58.4 9.8 14.7 5.4 28 12.7 39.6 21.6 2.1-2.8 4.3-5.4 6.7-7.9C703 35 719.1 28.3 737.3 28.3c17.1 0 31.1 4.7 41.6 14 7.5 6.6 15.3 15.4 24 26.9l15.6 20.5 38.6-52.3c4.2-5.7 10.9-9.1 17.9-9.1 23.3 0 42.6 4.5 57.3 13.5C950.2 52.7 960 69.2 960 88.5c0 6.9-1 13.5-3 19.4-1.8 5.4-4.5 10.9-7.9 16.2-2.9 4.5-6.4 9.4-10.7 15-3.9 4.9-8.4 10.7-13.7 17.4-.3.3-.6.7-.8 1l-22.5 25.2 57.8 76.4c3.5 4.7 5.1 10.6 4.3 16.4-2.5 18.8-10.3 34-23.1 45.4-12.9 11.4-28.5 17.1-46.3 17.1h-.6c-18.9-.5-34.5-6.4-46.4-17.6-9-8.4-17.7-18.6-25.9-30.3l-10-14.3-35.4 51c-4.2 6-11 9.6-18.3 9.6-1.2 0-2.5.1-3.9.2-2.9.2-5.3.3-7.2.3-23 0-41.3-5.3-54.6-15.9 0 0-.1 0-.1-.1l-3.3 1.8c-13.3 7.1-28.4 11.9-44.9 14.4-15 2.3-29.4 3.4-42.7 3.4-22.9 0-44.6-3.3-64.5-9.8-20.5-6.7-38.7-17-54.1-30.5-15.6-13.7-28-31.1-36.8-51.6-8.7-20.2-13.1-43.9-13.1-70.3 0-12.8 1.1-24.8 3.2-36-6 1.2-11.7 2.4-16.9 3.7v163.3c0 9.9-6.5 18.5-15.9 21.4-4.7 1.4-11 2.6-19.9 3.9-8.5 1.2-17.4 1.8-26.5 1.8-8.9 0-17.2-.6-24.5-1.9-9.6-1.6-18.1-5.2-25.1-10.5-7.4-5.6-13.1-13-16.9-22.1-.2-.5-.4-.9-.6-1.4-13.8 13.3-30.4 23.4-49.4 29.9-18.6 6.4-39.3 9.6-61.7 9.6-6.7 0-13.3-.4-19.8-1.2v59.3c0 9.9-6.5 18.5-15.9 21.4-4.5 1.4-10.8 2.6-19.7 4.1-8.9 1.5-18 2.2-27.2 2.2zm516-196.6c11-.3 21.4-1.8 31.1-4.6.1 0 .3-.1.4-.1l-31.5 4.7zm-453.7-4.9c2.2.4 4.6.6 7.1.6 16.1 0 31.8-3.3 31.8-42.4 0-21.2-4.5-31.2-8.3-35.8-2.9-3.5-8.2-8.2-21.4-8.2-3.5 0-6.6.3-9.2.9v84.9zm535.8-9.1c1.2.8 2.4 1.7 3.6 2.6 1.4-1.7 5.9-6.8 5.9-6.8-3 1.6-6.2 3-9.5 4.2zm36.6-35.7l1-1.2-.5-.6c-.2.7-.4 1.3-.5 1.8z" fill="#fab400"/>
    <path d="M586 46.4c18.6 0 35.5 2.8 50.7 8.4 15.2 5.6 28.4 13.3 39.4 23.1 5.4 4.8 10.2 10.1 14.5 15.9 2.9-12.4 8.2-22.6 16-30.6 8.2-8.4 18.5-12.6 30.8-12.6 11.6 0 20.5 2.8 26.8 8.4 6.3 5.6 13.3 13.5 21 23.7l33.6 44.2 56.3-76.3c19.3 0 34.5 3.4 45.7 10.3 11.2 6.8 16.8 16 16.8 27.6 0 4.6-.6 8.7-1.8 12.4-1.2 3.7-3.1 7.5-5.5 11.3-2.5 3.9-5.6 8.2-9.5 13.1-3.9 4.9-8.4 10.7-13.7 17.4l-34.7 38.9 68.9 91c-1.8 13.3-7 23.8-15.8 31.6-8.8 7.7-19.3 11.6-31.5 11.6-13.3-.4-23.9-4.2-31.8-11.6-7.9-7.4-15.5-16.3-22.9-26.8L811 236.8l-53.6 77.3c-1.8 0-3.7.1-5.8.3-2.1.2-3.9.3-5.3.3-17.9 0-31.5-3.7-40.7-11-5.4-4.3-9.2-9.1-11.4-14.6-3.7 5.6-9 10.3-16.2 14.1-11.2 6-23.8 10-37.9 12.1-14 2.1-27.2 3.2-39.4 3.2-20.7 0-39.9-2.9-57.6-8.7-17.7-5.8-33.1-14.5-46.3-26-13.1-11.6-23.5-26.1-31-43.6s-11.3-38-11.3-61.5c0-23.1 3.8-43 11.3-59.7.4-.9.9-1.7 1.3-2.6-3.6.2-7.3.4-11.1.8-7.7.7-15.2 1.8-22.6 3.2-7.4 1.4-14.3 2.9-20.8 4.5s-12 3.4-16.6 5.5v179.3c-3.5 1.1-9 2.1-16.6 3.2-7.5 1.1-15.3 1.6-23.4 1.6-7.7 0-14.6-.5-20.8-1.6-6.1-1.1-11.3-3.2-15.5-6.3-4.2-3.2-7.4-7.4-9.7-12.9-2.3-5.4-3.4-12.5-3.4-21.3v-51.5c-1.5 7.4-3.3 14.5-5.8 21-6.3 16.8-15.2 30.9-26.8 42.3-11.6 11.4-25.5 19.9-41.8 25.5-16.3 5.6-34.4 8.4-54.4 8.4-15.1 0-29.1-2.3-42.1-6.8v87.3c-3.5 1.1-9.1 2.2-16.8 3.4-7.7 1.2-15.6 1.8-23.7 1.8-7.7 0-14.6-.5-20.8-1.6-6.1-1.1-11.3-3.2-15.5-6.3-4.2-3.2-7.4-7.5-9.5-12.9-2.1-5.4-3.2-12.5-3.2-21.3V109c0-9.5 2-17.2 6-23.1 4-6 9.5-11.4 16.6-16.3 10.9-7 24.4-12.6 40.5-16.8 16.1-4.2 34.2-6.3 54.1-6.3 21 0 40.6 2.7 58.6 8.2 18.1 5.4 33.6 13.8 46.5 25 13 11.2 23.1 25.3 30.5 42.3 3.1 7.2 5.6 15.1 7.4 23.5v-31.1c0-8.1 1.5-15 4.5-20.8 3-5.8 7.3-11 12.9-15.5 5.6-4.6 12.5-8.7 20.8-12.4 8.2-3.7 17.1-6.9 26.5-9.7 9.5-2.8 19.3-5 29.4-6.6 10.2-1.6 20.3-2.4 30.5-2.4 16.8 0 30.1 3.2 40 9.7 9.5 6.3 14.4 16.5 14.7 30.5 3-3.4 6.2-6.6 9.5-9.5C507.8 67 521.9 59.1 537.6 54c15.8-5 31.9-7.6 48.4-7.6m22.1 205.1c14.4 0 27.9-1.8 40.7-5.5 12.8-3.7 23.2-8 31.3-12.9 5.6 3.5 10.3 8.4 14.2 14.7 1.3 2.1 2.3 4.3 3.2 6.5.1-.2.2-.3.3-.5 4-6.5 10.9-15.3 20.8-26.6l42.1-48.9-63.1-73.9c1.6 2.8 3.1 5.7 4.5 8.7 6.1 13.7 9.2 28.6 9.2 44.7 0 11.9-3.3 21-10 27.3-6.7 6.3-15.9 10.3-27.9 12.1l-129.9 19.5c3.8 11.6 11.7 20.2 23.7 26 11.8 5.9 25.5 8.8 40.9 8.8m-71-93.6l89.9-14.7c-1.1-7-4.9-14-11.6-21-6.7-7-16.5-10.5-29.4-10.5-8.4 0-15.7 1.4-21.8 4.2-6.1 2.8-11.1 6.4-15 10.8-3.9 4.4-6.8 9.3-8.7 14.7-1.9 5.4-3 10.9-3.4 16.5m-372.2 89.4c36.1 0 54.1-21.6 54.1-64.7 0-22.4-4.5-39.1-13.4-50-8.9-10.9-21.8-16.3-38.6-16.3-6.7 0-12.6.8-17.9 2.4-5.3 1.6-9.8 3.4-13.7 5.5v115.7c4.2 2.1 8.8 3.9 13.7 5.3 4.9 1.4 10.2 2.1 15.8 2.1M586 1.8c-21 0-41.9 3.3-62 9.8-8.6 2.8-16.8 6.2-24.7 10.2-1.1-.8-2.2-1.6-3.3-2.3-17.2-11.4-38.9-17.2-64.6-17.2-12.4 0-25 1-37.3 2.9-12.1 1.9-23.9 4.5-35.3 7.9-11.4 3.4-22.2 7.3-32.1 11.8-11.8 5.3-22.1 11.5-30.7 18.5-.1.1-.3.2-.4.3-17.2-14.2-37.4-24.9-60.3-31.8-22.2-6.7-46.2-10-71.5-10-23.7 0-45.7 2.6-65.4 7.8C77.8 14.9 59.8 22.5 45 32.1c-.5.3-.9.6-1.4.9-11.5 8-20.9 17.4-27.9 27.9C6.6 74.3 2 90.5 2 109v252.4c0 14.5 2 26.7 6.2 37.4 5.1 13.3 13.3 24.2 24.3 32.5 9.9 7.4 21.6 12.3 34.7 14.6 8.6 1.5 18.1 2.2 28.3 2.2 10.3 0 20.7-.8 30.7-2.4 10.1-1.6 17.1-3.1 22.6-4.7 18.9-5.7 31.8-23 31.8-42.7v-35.9c23.9-.2 46.2-3.9 66.4-10.8 13.3-4.6 25.6-10.6 36.8-18.1 2.9 3.1 6 5.9 9.5 8.5 9.9 7.4 21.6 12.3 34.7 14.6 8.6 1.5 18.1 2.2 28.3 2.2 10.1 0 20-.7 29.6-2 10-1.4 17.4-2.9 23.2-4.6 18.9-5.7 31.8-23 31.8-42.7V287c7.6 11.3 16.5 21.4 26.6 30.3 17.6 15.5 38.5 27.3 61.9 34.9 22.1 7.2 46.1 10.9 71.4 10.9 14.4 0 29.9-1.2 46-3.6 15.6-2.3 30.1-6.6 43.5-12.6 15.4 8.3 34.2 12.5 56.1 12.5 2.6 0 5.6-.1 8.9-.4 1.1-.1 1.7-.1 2.1-.1 14.6 0 28.3-7.2 36.6-19.2l17.4-25.1c6.6 8.3 13.4 15.8 20.4 22.3 11 10.3 30.6 22.7 61.1 23.6h1.2c23 0 44.1-7.8 61-22.7 16.8-14.8 27.4-35.3 30.5-59.2 1.5-11.6-1.6-23.4-8.7-32.8l-46.7-61.7 10.3-11.5c.6-.7 1.2-1.3 1.7-2 5.3-6.7 9.9-12.5 13.7-17.5 4.8-6.2 8.8-11.6 12-16.8 4.4-6.9 7.8-14 10.2-21.1 2.8-8.3 4.1-17.2 4.1-26.5 0-27.3-13.6-50.7-38.2-65.7-18.2-11.4-41.4-17-68.9-17-14.2 0-27.5 6.7-35.9 18.1l-20.9 28.4c-8.6-11.1-16.6-19.9-24.5-26.8-10.1-9-28-19.7-56.4-19.7-21.5 0-40.9 7-56.7 20.4-8.9-5.2-18.5-9.8-28.6-13.5C632 5.5 609.7 1.8 586 1.8z" fill="#282828"/>
</svg>
